<?xml version="1.0" encoding="UTF-8" standalone="no"?>
<svg
   xmlns:dc="http://purl.org/dc/elements/1.1/"
   xmlns:cc="http://creativecommons.org/ns#"
   xmlns:rdf="http://www.w3.org/1999/02/22-rdf-syntax-ns#"
   xmlns:svg="http://www.w3.org/2000/svg"
   xmlns="http://www.w3.org/2000/svg"
   xmlns:sodipodi="http://sodipodi.sourceforge.net/DTD/sodipodi-0.dtd"
   xmlns:inkscape="http://www.inkscape.org/namespaces/inkscape"
   inkscape:version="1.0 (4035a4f, 2020-05-01)"
   height="147.02023"
   width="147.02"
   sodipodi:docname="ionic.svg"
   version="1.1"
   viewBox="0 0 147.02 147.02023"
   data-name="Layer 1"
   id="Layer_1">
  <metadata
     id="metadata128">
    <rdf:RDF>
      <cc:Work
         rdf:about="">
        <dc:format>image/svg+xml</dc:format>
        <dc:type
           rdf:resource="http://purl.org/dc/dcmitype/StillImage" />
        <dc:title> ionic-logo-landscape</dc:title>
      </cc:Work>
    </rdf:RDF>
  </metadata>
  <sodipodi:namedview
     inkscape:current-layer="Layer_1"
     inkscape:window-maximized="1"
     inkscape:window-y="23"
     inkscape:window-x="0"
     inkscape:cy="73.540228"
     inkscape:cx="217.75944"
     inkscape:zoom="2.5189437"
     fit-margin-bottom="0"
     fit-margin-right="0"
     fit-margin-left="0"
     fit-margin-top="0"
     showgrid="false"
     id="namedview126"
     inkscape:window-height="1155"
     inkscape:window-width="1920"
     inkscape:pageshadow="2"
     inkscape:pageopacity="0"
     guidetolerance="10"
     gridtolerance="10"
     objecttolerance="10"
     borderopacity="1"
     bordercolor="#666666"
     pagecolor="#ffffff" />
  <defs
     id="defs106">
    <style
       id="style104"
       type="text/css"><![CDATA[
	.cls-1{fill:#478aff;}
      ]]></style>
  </defs>
  <title
     id="title108"> ionic-logo-landscape</title>
  <path
     id="path110"
     d="m 73.509444,40.040228 a 33.5,33.5 0 1 0 33.499996,33.5 33.54,33.54 0 0 0 -33.499996,-33.5 z"
     class="cls-1" />
  <circle
     id="circle112"
     r="15.26"
     cy="27.750227"
     cx="121.60944"
     class="cls-1" />
  <path
     id="path114"
     d="m 140.39944,43.090228 -0.64,-1.4 -1,1.16 a 23,23 0 0 1 -9.21,6.34 l -1,0.36 0.4,1 a 60.09,60.09 0 1 1 -29.709996,-31.21 l 0.939996,0.45 0.41,-1 a 23,23 0 0 1 6.78,-8.89 l 1.2,-1 -1.37,-0.71 A 72.68,72.68 0 0 0 73.499444,2.2804823e-4 73.51,73.51 0 1 0 140.38944,43.000228 Z"
     class="cls-1" />
</svg>
